<svg width="1191" height="346" viewBox="0 0 1191 346" fill="none" xmlns="http://www.w3.org/2000/svg">
<path d="M0 14.6271L36.5057 6.39124L60 0H92L118.5 19L147.5 44L162.5 49L205.5 67L251 86.5L291.5 96L344.5 100L357.5 107.5H435.5H519.5H547.5L553.5 104L575 97.5L985.655 90.2034L1008.47 97.4703L1019.88 104.737L1028.25 112.489L1033.57 121.694L1037.37 262.672L1046.5 273.331L1057.91 282.051L1071.6 284.958L1114.95 286.411L1149.93 289.802L1168.94 296.1L1178.83 302.398L1185.68 310.634L1187.96 316.448L1189.48 320.808L1191 346H0V14.6271Z" fill="url(#paint0_diamond_9_32)"/>
<defs>
<radialGradient id="paint0_diamond_9_32" cx="0" cy="0" r="1" gradientUnits="userSpaceOnUse" gradientTransform="translate(628 265.5) rotate(-159.49) scale(659.293 2269.42)">
<stop offset="0.395833" stop-color="#323257"/>
<stop offset="0.786458" stop-color="#232743"/>
</radialGradient>
</defs>
</svg>
